<svg width="1024px" height="1024px" viewBox="0 0 1024 1024" xmlns="http://www.w3.org/2000/svg">
  <rect fill="#404DFF" x="0" y="0" width="1024" height="1024" rx="180"></rect>
  <polygon fill="#2C33B8"
           points="458.6 251 729.6 251 729.6 305 783.8 305 783.8 359 838 359 838 467 838 683 838 791 783.8 791 783.8 845 729.6 845 729.6 899 458.6 899 458.6 845 404.4 845 404.4 791 350.2 791 350.2 737 296 737 296 413 350.2 413 350.2 359 404.4 359 404.4 305 458.6 305"></polygon>
  <polygon fill="#414CFF"
           points="431.7 241 681.2 241 681.2 290.666667 731.1 290.666667 731.1 340.333333 781 340.333333 781 439.666667 781 638.333333 781 737.666667 731.1 737.666667 731.1 787.333333 681.2 787.333333 681.2 837 431.7 837 431.7 787.333333 381.8 787.333333 381.8 737.666667 331.9 737.666667 331.9 688 282 688 282 390 331.9 390 331.9 340.333333 381.8 340.333333 381.8 290.666667 431.7 290.666667"></polygon>
  <polygon fill="#474CBF"
           points="390.7 221 640.2 221 640.2 270.666667 690.1 270.666667 690.1 320.333333 740 320.333333 740 419.666667 740 618.333333 740 717.666667 690.1 717.666667 690.1 767.333333 640.2 767.333333 640.2 817 390.7 817 390.7 767.333333 340.8 767.333333 340.8 717.666667 290.9 717.666667 290.9 668 241 668 241 370 290.9 370 290.9 320.333333 340.8 320.333333 340.8 270.666667 390.7 270.666667"></polygon>
  <polygon fill="#424CFC"
           points="431.75 310 578.375 310 578.375 358.875 627.25 358.875 627.25 407.75 725 407.75 725 505.5 529.5 505.5 529.5 554.375 627.25 554.375 627.25 652.125 578.375 652.125 578.375 701 431.75 701 431.75 652.125 382.875 652.125 382.875 554.375 334 554.375 334 456.625 382.875 456.625 382.875 358.875 431.75 358.875"></polygon>
  <polygon fill="#FFFFFF"
           points="381.3 210 626.8 210 626.8 258.833333 675.9 258.833333 675.9 307.666667 725 307.666667 725 405.333333 626.8 405.333333 626.8 356.5 577.7 356.5 577.7 307.666667 430.4 307.666667 430.4 356.5 381.3 356.5 381.3 454.166667 332.2 454.166667 332.2 551.833333 381.3 551.833333 381.3 649.5 430.4 649.5 430.4 698.333333 577.7 698.333333 577.7 649.5 626.8 649.5 626.8 600.666667 725 600.666667 725 698.333333 675.9 698.333333 675.9 747.166667 626.8 747.166667 626.8 796 381.3 796 381.3 747.166667 332.2 747.166667 332.2 698.333333 283.1 698.333333 283.1 649.5 234 649.5 234 356.5 283.1 356.5 283.1 307.666667 332.2 307.666667 332.2 258.833333 381.3 258.833333"></polygon>
  <polygon fill="#FF96BB" points="529 505 529 553 626.5 553 626.5 601 724 601 724 505"></polygon>
</svg>
